<?xml version="1.0" encoding="utf-8"?>
<!-- Generator: Adobe Illustrator 22.0.1, SVG Export Plug-In . SVG Version: 6.00 Build 0)  -->
<svg version="1.1" id="Layer_1" xmlns="http://www.w3.org/2000/svg" xmlns:xlink="http://www.w3.org/1999/xlink" x="0px" y="0px"
	 viewBox="0 0 72.8 72.8" style="enable-background:new 0 0 72.8 72.8;" xml:space="preserve">
<style type="text/css">
	.st0{fill:#FFFFFF;}
	.st1{fill:#007AC9;}
	.st2{fill:#5CC5FF;}
	.st3{fill:none;stroke:#FFFFFF;stroke-width:1.75;stroke-linecap:round;stroke-linejoin:round;stroke-miterlimit:10;}
	.st4{fill:none;stroke:#FFFFFF;stroke-width:1.5;stroke-miterlimit:10;}
</style>
<title>svgs-2</title>
<g>
	<path class="st0" d="M46.3,35c-0.5,0-0.8-0.4-0.9-0.8c0-0.4-0.2-1.6-1.1-2.5c-0.6-0.6-1.3-0.9-1.8-1c-0.5-0.1-0.8-0.6-0.6-1.1
		c0.1-0.5,0.6-0.8,1.1-0.6c0.7,0.2,1.7,0.6,2.6,1.5c1.4,1.3,1.6,3,1.6,3.6C47.2,34.6,46.9,35,46.3,35C46.4,35,46.3,35,46.3,35z"/>
</g>
<g>
	<polygon class="st1" points="52.7,56.4 16.8,56.4 16.8,9.2 39.2,9.2 52.7,22.7 	"/>
	<polyline class="st2" points="39.2,9.2 39.2,22.7 52.7,22.7 	"/>
</g>
<line class="st3" x1="25.9" y1="30.8" x2="37.9" y2="30.8"/>
<line class="st3" x1="25.9" y1="39.8" x2="30.9" y2="39.8"/>
<g>
	<g>
		<circle class="st2" cx="43.2" cy="50.8" r="12.8"/>
	</g>
	<path class="st4" d="M46,48.3c0,1.5-1.2,2.7-2.7,2.7c-1.5,0-2.7-1.2-2.7-2.7c0-1.5,1.2-2.7,2.7-2.7C44.7,45.6,46,46.8,46,48.3z"/>
	<path class="st4" d="M43.2,51c-3.9,0-5,2.7-5,5h10C48.2,53.7,47.1,51,43.2,51z"/>
</g>
</svg>
