<?xml version="1.0" encoding="utf-8"?>
<!-- Generator: Adobe Illustrator 22.0.1, SVG Export Plug-In . SVG Version: 6.00 Build 0)  -->
<svg version="1.1" id="Layer_1" xmlns="http://www.w3.org/2000/svg" xmlns:xlink="http://www.w3.org/1999/xlink" x="0px" y="0px"
	 viewBox="0 0 72.8 72.8" style="enable-background:new 0 0 72.8 72.8;" xml:space="preserve">
<style type="text/css">
	.st0{fill:none;stroke:#FFFFFF;stroke-width:1.75;stroke-linecap:round;stroke-miterlimit:10;}
	.st1{fill:#007AC9;}
	.st2{fill:#5CC5FF;}
	.st3{fill:none;stroke:#FFFFFF;stroke-width:1.75;stroke-linecap:round;stroke-linejoin:round;stroke-miterlimit:10;}
</style>
<title>svgs-2</title>
<line class="st0" x1="43.9" y1="51.7" x2="53.5" y2="51.7"/>
<g>
	<g>
		<path class="st1" d="M55.7,20.4H31.4c-0.7,0-1.4-0.3-1.8-0.9l-3.4-4.2c-0.4-0.5-1.1-0.9-1.8-0.9H13.2c-1.3,0-2.3,1-2.3,2.3v30.6
			c0,1.3,1,2.3,2.3,2.3h42.5c1.3,0,2.3-1,2.3-2.3V22.7C58,21.5,57,20.4,55.7,20.4z"/>
	</g>
	<g>
		<g>
			<path class="st2" d="M62.3,58c0,0.6-0.5,1-1,1H42.7c-0.6,0-1-0.5-1-1V30.1c0-0.6,0.5-1,1-1h18.6c0.6,0,1,0.5,1,1V58z"/>
			<rect x="44.5" y="32.1" class="st1" width="15.5" height="6.2"/>
			<line class="st3" x1="57.7" y1="34.2" x2="57.7" y2="36.3"/>
		</g>
		<line class="st3" x1="45.2" y1="45.1" x2="48.1" y2="45.1"/>
		<line class="st3" x1="50.9" y1="45.1" x2="53.8" y2="45.1"/>
		<line class="st3" x1="56.6" y1="45.1" x2="59.4" y2="45.1"/>
		<line class="st3" x1="45.2" y1="50.8" x2="48.1" y2="50.8"/>
		<line class="st3" x1="50.9" y1="50.8" x2="53.8" y2="50.8"/>
		<line class="st3" x1="56.6" y1="50.8" x2="59.4" y2="50.8"/>
	</g>
</g>
</svg>
