<?xml version="1.0" encoding="utf-8"?>
<!-- Generator: Adobe Illustrator 21.1.0, SVG Export Plug-In . SVG Version: 6.00 Build 0)  -->
<svg version="1.1" id="Layer_1" xmlns="http://www.w3.org/2000/svg" xmlns:xlink="http://www.w3.org/1999/xlink" x="0px" y="0px"
	 viewBox="0 0 498.3 82.8" style="enable-background:new 0 0 498.3 82.8;" xml:space="preserve">
<style type="text/css">
	.st0{clip-path:url(#SVGID_2_);fill:#221F1F;}
	.st1{clip-path:url(#SVGID_2_);fill:#007AD4;}
	.st2{fill:#231F20;}
	.st3{fill:#007AD4;}
</style>
<g>
	<defs>
		<rect id="SVGID_1_" x="3.7" y="20.9" width="278.8" height="36.3"/>
	</defs>
	<clipPath id="SVGID_2_">
		<use xlink:href="#SVGID_1_"  style="overflow:visible;"/>
	</clipPath>
	<path class="st0" d="M3.7,24.6c0-1.8,1.4-3.1,3.1-3.1h12.5c4.4,0,7.9,1.3,10.1,3.5c1.9,1.9,2.9,4.5,2.9,7.6v0.1c0,5.6-3.3,9-8,10.5
		l6.7,8.5c0.6,0.8,1,1.4,1,2.4c0,1.7-1.5,2.9-3,2.9c-1.4,0-2.3-0.7-3-1.6l-8.5-10.9H9.8v9.4c0,1.7-1.4,3.1-3.1,3.1
		c-1.8,0-3.1-1.4-3.1-3.1V24.6z M18.9,38.9c4.4,0,7.2-2.3,7.2-5.9v-0.1c0-3.8-2.7-5.8-7.3-5.8h-9v11.8H18.9z"/>
	<path class="st0" d="M73.1,24.6c0-1.8,1.4-3.1,3.1-3.1h10.7c8.2,0,13.3,4.7,13.3,11.7v0.1c0,7.9-6.3,12-14,12h-7v8.5
		c0,1.7-1.4,3.1-3.1,3.1c-1.8,0-3.1-1.4-3.1-3.1V24.6z M86.4,39.8c4.7,0,7.6-2.6,7.6-6.3v-0.1c0-4.1-3-6.3-7.6-6.3h-7.2v12.6H86.4z"
		/>
	<path class="st0" d="M107.8,24.3c0-1.7,1.4-3.1,3.1-3.1c1.7,0,3.1,1.4,3.1,3.1V51h15.9c1.6,0,2.8,1.3,2.8,2.8
		c0,1.6-1.3,2.8-2.8,2.8h-19c-1.8,0-3.1-1.4-3.1-3.1V24.3z"/>
	<path class="st0" d="M140.5,24.3c0-1.7,1.4-3.1,3.1-3.1c1.7,0,3.1,1.4,3.1,3.1v29.5c0,1.7-1.4,3.1-3.1,3.1c-1.8,0-3.1-1.4-3.1-3.1
		V24.3z"/>
	<path class="st0" d="M42.6,56.6c-1.5,0-2.7-1.2-2.7-2.8c0-1.5,1.2-2.7,2.7-2.7h20.1c1.5,0,2.7,1.2,2.7,2.7c0,1.6-1.2,2.8-2.7,2.8
		H42.6z"/>
	<path class="st0" d="M42.6,41.6c-1.5,0-2.7-1.2-2.7-2.8c0-1.5,1.2-2.7,2.7-2.7h13c1.5,0,2.7,1.2,2.7,2.7c0,1.6-1.2,2.8-2.7,2.8
		H42.6z"/>
	<path class="st0" d="M42.6,27.1c-1.5,0-2.7-1.2-2.7-2.8c0-1.5,1.2-2.7,2.7-2.7h20.1c1.5,0,2.7,1.2,2.7,2.7c0,1.6-1.2,2.8-2.7,2.8
		H42.6z"/>
	<path class="st0" d="M155.7,39.2L155.7,39.2c0-10.1,7.5-18.2,18.1-18.2c5.4,0,9,1.6,12,4c0.7,0.5,1.2,1.4,1.2,2.5
		c0,1.7-1.4,3-3.1,3c-0.9,0-1.5-0.3-1.9-0.6c-2.4-2-5-3.2-8.4-3.2c-6.7,0-11.6,5.5-11.6,12.4v0.1c0,6.9,4.9,12.4,11.6,12.4
		c3.7,0,6.2-1.2,8.8-3.4c0.4-0.4,1.1-0.7,1.9-0.7c1.6,0,2.9,1.3,2.9,2.9c0,1-0.4,1.7-1,2.2c-3.3,2.9-7.1,4.7-12.7,4.7
		C163.3,57.2,155.7,49.2,155.7,39.2"/>
	<path class="st1" d="M236.5,24.4c0-1.7,1.4-3.1,3.1-3.1h0.7c1.5,0,2.4,0.8,3.2,1.8l17.5,22.7V24.3c0-1.7,1.4-3,3-3
		c1.7,0,3.1,1.4,3.1,3v29.5c0,1.7-1.3,3.1-3,3.1h-0.3c-1.5,0-2.4-0.8-3.2-1.9l-18.1-23.4v22.3c0,1.7-1.4,3-3,3c-1.7,0-3.1-1.4-3.1-3
		V24.4z"/>
	<path class="st1" d="M193.5,39.2L193.5,39.2c0-9.9,7.6-18.1,18.3-18.1c10.7,0,18.2,8.1,18.2,17.9v0.1c0,9.8-7.6,18-18.3,18
		C200.9,57.1,193.5,49,193.5,39.2 M223.5,39.2L223.5,39.2c0-6.9-4.9-12.5-11.9-12.5c-6.9,0-11.8,5.5-11.8,12.3v0.1
		c0,6.8,4.9,12.4,11.9,12.4C218.7,51.4,223.5,45.9,223.5,39.2"/>
	<polygon class="st0" points="274.2,23 272.5,23 272.5,22.5 276.5,22.5 276.5,23 274.8,23 274.8,27.6 274.2,27.6 	"/>
	<polygon class="st0" points="277.6,22.5 278.2,22.5 280.1,25.3 281.9,22.5 282.5,22.5 282.5,27.6 281.9,27.6 281.9,23.5 
		280.1,26.2 280,26.2 278.2,23.5 278.2,27.6 277.6,27.6 	"/>
</g>
<g>
	<path class="st2" d="M311.9,13.3h-4.7v-2.4h12.1v2.4h-4.7v12.5h-2.6V13.3z"/>
	<path class="st2" d="M321.6,10.2h2.6v6c0.7-1,1.8-2,3.5-2c2.5,0,4,1.7,4,4.3v7.2h-2.6v-6.4c0-1.7-0.9-2.8-2.4-2.8
		c-1.5,0-2.5,1-2.5,2.8v6.4h-2.6V10.2z"/>
	<path class="st2" d="M334.2,20.2L334.2,20.2c0-3.3,2.3-5.9,5.5-5.9c3.6,0,5.4,2.8,5.4,6.1c0,0.2,0,0.5,0,0.7h-8.3
		c0.3,1.8,1.6,2.9,3.2,2.9c1.3,0,2.2-0.5,3.1-1.3l1.5,1.3c-1.1,1.3-2.5,2.1-4.6,2.1C336.7,26,334.2,23.7,334.2,20.2z M342.5,19.3
		c-0.2-1.7-1.2-3-2.9-3c-1.6,0-2.7,1.2-2.9,3H342.5z"/>
</g>
<g>
	<g>
		<path class="st3" d="M311.9,35.9h-4.7v-2.4h12.1v2.4h-4.7v12.5h-2.6V35.9z"/>
		<path class="st3" d="M321.4,33h2.8v2.5h-2.8V33z M321.5,37.2h2.6v11.3h-2.6V37.2z"/>
		<path class="st3" d="M327.5,37.2h2.6v1.7c0.7-1,1.7-1.9,3.4-1.9c1.6,0,2.8,0.8,3.4,2c0.9-1.2,2.1-2,3.8-2c2.5,0,3.9,1.6,3.9,4.3
			v7.2H342V42c0-1.8-0.8-2.8-2.3-2.8c-1.4,0-2.4,1-2.4,2.8v6.4h-2.6V42c0-1.7-0.9-2.7-2.3-2.7c-1.4,0-2.4,1.1-2.4,2.8v6.4h-2.6V37.2
			z"/>
		<path class="st3" d="M347.1,42.8L347.1,42.8c0-3.3,2.3-5.9,5.5-5.9c3.6,0,5.4,2.8,5.4,6.1c0,0.2,0,0.5,0,0.7h-8.3
			c0.3,1.8,1.6,2.9,3.2,2.9c1.3,0,2.2-0.5,3.1-1.3l1.5,1.3c-1.1,1.3-2.5,2.1-4.6,2.1C349.7,48.7,347.1,46.3,347.1,42.8z M355.5,42
			c-0.2-1.7-1.2-3-2.9-3c-1.6,0-2.7,1.2-2.9,3H355.5z"/>
		<path class="st3" d="M364.7,33.5h2.6v14.9h-2.6V33.5z"/>
		<path class="st3" d="M371,37.2h2.6v1.7c0.7-1,1.8-2,3.5-2c2.5,0,4,1.7,4,4.3v7.2h-2.6V42c0-1.7-0.9-2.8-2.4-2.8
			c-1.5,0-2.5,1-2.5,2.8v6.4H371V37.2z"/>
		<path class="st3" d="M384.8,45.3v-5.9h-1.4v-2.2h1.4v-3.1h2.6v3.1h3v2.2h-3v5.5c0,1,0.5,1.4,1.4,1.4c0.6,0,1.1-0.1,1.6-0.4V48
			c-0.6,0.4-1.3,0.6-2.3,0.6C386.1,48.6,384.8,47.8,384.8,45.3z"/>
		<path class="st3" d="M392.1,42.8L392.1,42.8c0-3.3,2.3-5.9,5.5-5.9c3.6,0,5.4,2.8,5.4,6.1c0,0.2,0,0.5,0,0.7h-8.3
			c0.3,1.8,1.6,2.9,3.2,2.9c1.3,0,2.2-0.5,3.1-1.3l1.5,1.3c-1.1,1.3-2.5,2.1-4.6,2.1C394.6,48.7,392.1,46.3,392.1,42.8z M400.4,42
			c-0.2-1.7-1.2-3-2.9-3c-1.6,0-2.7,1.2-2.9,3H400.4z"/>
		<path class="st3" d="M405.7,32.9h2.6v15.6h-2.6V32.9z"/>
		<path class="st3" d="M411.8,32.9h2.6v15.6h-2.6V32.9z"/>
		<path class="st3" d="M417.8,33h2.8v2.5h-2.8V33z M417.9,37.2h2.6v11.3h-2.6V37.2z"/>
		<path class="st3" d="M423.9,50.5l1-1.9c1.2,0.7,2.5,1.2,4,1.2c2.3,0,3.6-1.2,3.6-3.5v-0.9c-0.9,1.2-2.1,2.1-4,2.1
			c-2.6,0-5.1-2-5.1-5.3v0c0-3.3,2.5-5.3,5.1-5.3c1.9,0,3.1,0.9,3.9,1.9v-1.7h2.6v9c0,1.9-0.5,3.3-1.4,4.2c-1,1-2.6,1.5-4.6,1.5
			C427.1,51.9,425.3,51.4,423.9,50.5z M432.4,42.2L432.4,42.2c0-1.9-1.5-3.1-3.3-3.1s-3.2,1.2-3.2,3.1v0c0,1.8,1.4,3.1,3.2,3.1
			C430.9,45.3,432.4,44.1,432.4,42.2z"/>
		<path class="st3" d="M437.6,42.8L437.6,42.8c0-3.3,2.3-5.9,5.5-5.9c3.6,0,5.4,2.8,5.4,6.1c0,0.2,0,0.5,0,0.7h-8.3
			c0.3,1.8,1.6,2.9,3.2,2.9c1.3,0,2.2-0.5,3.1-1.3l1.5,1.3c-1.1,1.3-2.5,2.1-4.6,2.1C440.1,48.7,437.6,46.3,437.6,42.8z M445.9,42
			c-0.2-1.7-1.2-3-2.9-3c-1.6,0-2.7,1.2-2.9,3H445.9z"/>
		<path class="st3" d="M451.1,37.2h2.6v1.7c0.7-1,1.8-2,3.5-2c2.5,0,4,1.7,4,4.3v7.2h-2.6V42c0-1.7-0.9-2.8-2.4-2.8
			c-1.5,0-2.5,1-2.5,2.8v6.4h-2.6V37.2z"/>
		<path class="st3" d="M463.7,42.9L463.7,42.9c0-3.2,2.5-5.9,5.9-5.9c2.1,0,3.4,0.8,4.5,1.9l-1.6,1.7c-0.8-0.8-1.6-1.4-2.9-1.4
			c-1.9,0-3.3,1.6-3.3,3.6v0c0,2,1.4,3.6,3.4,3.6c1.2,0,2.1-0.6,2.9-1.4l1.6,1.5c-1.1,1.2-2.4,2.1-4.6,2.1
			C466.2,48.7,463.7,46.1,463.7,42.9z"/>
		<path class="st3" d="M475.6,42.8L475.6,42.8c0-3.3,2.3-5.9,5.5-5.9c3.6,0,5.4,2.8,5.4,6.1c0,0.2,0,0.5,0,0.7h-8.3
			c0.3,1.8,1.6,2.9,3.2,2.9c1.3,0,2.2-0.5,3.1-1.3l1.5,1.3c-1.1,1.3-2.5,2.1-4.6,2.1C478.1,48.7,475.6,46.3,475.6,42.8z M483.9,42
			c-0.2-1.7-1.2-3-2.9-3c-1.6,0-2.7,1.2-2.9,3H483.9z"/>
	</g>
	<g>
		<path class="st3" d="M488.9,37.3h-1.2v-0.7h3.1v0.7h-1.2v3.2h-0.7V37.3z M491.6,36.6h0.8l1.2,1.8l1.2-1.8h0.8v3.8h-0.7v-2.7
			l-1.2,1.8h-0.1l-1.2-1.8v2.7h-0.7V36.6z"/>
	</g>
	<g>
	</g>
</g>
<g>
	<path class="st2" d="M308,63.9L308,63.9c0-4.3,3.2-7.8,7.7-7.8c2.8,0,4.4,1,5.8,2.3l-1.7,1.9c-1.2-1.1-2.5-1.9-4.2-1.9
		c-2.8,0-4.9,2.3-4.9,5.3v0c0,2.9,2.1,5.3,4.9,5.3c1.8,0,3-0.7,4.3-1.9l1.7,1.7c-1.6,1.6-3.3,2.6-6.1,2.6
		C311.3,71.6,308,68.2,308,63.9z"/>
	<path class="st2" d="M323.3,65.8L323.3,65.8c0-3.3,2.6-5.9,6-5.9c3.5,0,6,2.6,6,5.8v0c0,3.2-2.6,5.9-6,5.9
		C325.9,71.6,323.3,69,323.3,65.8z M332.8,65.8L332.8,65.8c0-2-1.4-3.7-3.5-3.7c-2.1,0-3.4,1.6-3.4,3.6v0c0,2,1.4,3.6,3.4,3.6
		C331.4,69.3,332.8,67.7,332.8,65.8z"/>
	<path class="st2" d="M338,60.1h2.6v1.7c0.7-1,1.7-1.9,3.4-1.9c1.6,0,2.8,0.8,3.4,2c0.9-1.2,2.1-2,3.8-2c2.5,0,3.9,1.6,3.9,4.3v7.2
		h-2.6v-6.4c0-1.8-0.8-2.8-2.3-2.8c-1.4,0-2.4,1-2.4,2.8v6.4h-2.6v-6.4c0-1.7-0.9-2.7-2.3-2.7c-1.4,0-2.4,1.1-2.4,2.8v6.4H338V60.1z
		"/>
	<path class="st2" d="M358.2,60.1h2.6v1.9c0.8-1.2,2-2.1,3.8-2.1c2.6,0,5.2,2.1,5.2,5.8v0c0,3.7-2.6,5.8-5.2,5.8
		c-1.9,0-3.1-0.9-3.8-2v5.2h-2.6V60.1z M367.3,65.7L367.3,65.7c0-2.2-1.5-3.6-3.2-3.6c-1.8,0-3.3,1.5-3.3,3.6v0
		c0,2.2,1.5,3.6,3.3,3.6C365.8,69.3,367.3,67.9,367.3,65.7z"/>
	<path class="st2" d="M371.8,68.1L371.8,68.1c0-2.5,1.9-3.7,4.7-3.7c1.3,0,2.2,0.2,3,0.5v-0.3c0-1.6-1-2.5-2.8-2.5
		c-1.3,0-2.2,0.3-3.2,0.7l-0.7-2c1.2-0.6,2.5-0.9,4.2-0.9c1.7,0,2.9,0.4,3.7,1.3c0.8,0.8,1.2,2,1.2,3.5v6.7h-2.5v-1.4
		c-0.8,0.9-1.9,1.6-3.7,1.6C373.7,71.6,371.8,70.4,371.8,68.1z M379.5,67.3v-0.8c-0.7-0.3-1.5-0.4-2.6-0.4c-1.7,0-2.6,0.7-2.6,1.9v0
		c0,1.1,1,1.7,2.2,1.7C378.2,69.7,379.5,68.7,379.5,67.3z"/>
	<path class="st2" d="M385.1,60.1h2.6v1.7c0.7-1,1.8-2,3.5-2c2.5,0,4,1.7,4,4.3v7.2h-2.6v-6.4c0-1.7-0.9-2.8-2.4-2.8
		c-1.5,0-2.5,1-2.5,2.8v6.4h-2.6V60.1z"/>
	<path class="st2" d="M405.8,60.1h2.7L404,71.7c-0.9,2.3-1.9,3.2-3.7,3.2c-1.1,0-1.9-0.3-2.7-0.7l0.9-1.9c0.5,0.3,1,0.4,1.5,0.4
		c0.7,0,1.2-0.3,1.6-1.3l-4.7-11.3h2.8l3.2,8.4L405.8,60.1z"/>
</g>
<g>
	<g>
		<path class="st2" d="M297.2,78.9c-0.9,0-1.7-0.7-1.7-1.7v-72c0-0.9,0.7-1.7,1.7-1.7s1.7,0.7,1.7,1.7v72
			C298.8,78.2,298.1,78.9,297.2,78.9z"/>
	</g>
</g>
<g>
</g>
<g>
</g>
<g>
</g>
<g>
</g>
<g>
</g>
<g>
</g>
</svg>
